<?xml version="1.0" encoding="UTF-8"?>
<svg width="33px" height="39px" viewBox="0 0 33 39" version="1.1" xmlns="http://www.w3.org/2000/svg" xmlns:xlink="http://www.w3.org/1999/xlink">
    <!-- Generator: sketchtool 52.5 (67469) - http://www.bohemiancoding.com/sketch -->
    <title>D16E94F8-6EC1-4CFB-B2A0-DB924E654C3D3x</title>
    <desc>Created with sketchtool.</desc>
    <g id="A/B-testing" stroke="none" stroke-width="1" fill="none" fill-rule="evenodd">
        <g id="Learnmore_update_Desktop" transform="translate(-473.000000, -226.000000)" fill="#000000" fill-rule="nonzero">
            <g id="Group-5" transform="translate(380.000000, 124.000000)">
                <g id="Group-3" transform="translate(45.000000, 100.000000)">
                    <g id="You-Shop">
                        <g id="shopping-bag" transform="translate(43.000000, 0.000000)">
                            <g id="004-shopper" transform="translate(5.788235, 2.374148)">
                                <path d="M31.9137655,36.3918496 L29.5661605,10.655449 C29.502093,9.95261026 28.9036983,9.414258 28.1869541,9.414258 L23.3456996,9.414258 L23.3456996,7.26484751 C23.3456996,3.2590123 20.0352349,0 15.9661144,0 C11.8971785,0 8.58708314,3.2590123 8.58708314,7.26484751 L8.58708314,9.414258 L3.74250522,9.414258 C3.025761,9.414258 2.42736636,9.95261026 2.36329881,10.655449 L0.00646214514,36.493086 C-0.0282488061,36.8744037 0.101363363,37.2522681 0.363726457,37.5347122 C0.626089551,37.8171563 0.997016684,37.9780077 1.38566856,37.9780077 L30.5439754,37.9780077 C30.5450832,37.9780077 30.5465602,37.9780077 30.547668,37.9780077 C31.3126014,37.9780077 31.9324134,37.3676813 31.9324134,36.6148605 C31.9322288,36.5390695 31.9259513,36.4643691 31.9137655,36.3918496 Z M11.3565732,7.26484761 C11.3565732,4.76229107 13.4244595,2.72629439 15.9662979,2.72629439 C18.508321,2.72629439 20.5763919,4.76229107 20.5763919,7.26484761 L20.5763919,9.41425814 L11.3565732,9.41425814 L11.3565732,7.26484761 Z M2.90039514,35.2518963 L5.00853149,12.1405525 L8.58708279,12.1405525 L8.58708279,14.5782233 C8.58708279,15.3310441 9.20689482,15.9413706 9.97182816,15.9413706 C10.7367615,15.9413706 11.3565735,15.3310441 11.3565735,14.5782233 L11.3565735,12.1405525 L20.5763928,12.1405525 L20.5763928,14.5782233 C20.5763928,15.3310441 21.1962048,15.9413706 21.9611382,15.9413706 C22.7260715,15.9413706 23.3458836,15.3310441 23.3458836,14.5782233 L23.3458836,12.1405525 L26.9211115,12.1405525 L29.0292478,35.2518963 L2.90039514,35.2518963 Z" id="Shape"></path>
                            </g>
                        </g>
                    </g>
                </g>
            </g>
        </g>
    </g>
</svg>