<?xml version="1.0" encoding="UTF-8"?>
<svg width="39px" height="39px" viewBox="0 0 39 39" version="1.1" xmlns="http://www.w3.org/2000/svg" xmlns:xlink="http://www.w3.org/1999/xlink">
    <!-- Generator: sketchtool 52.5 (67469) - http://www.bohemiancoding.com/sketch -->
    <title>02FEFFD8-2E9F-47F7-8236-132CEBFB58AD3x</title>
    <desc>Created with sketchtool.</desc>
    <g id="A/B-testing" stroke="none" stroke-width="1" fill="none" fill-rule="evenodd">
        <g id="Learnmore_update_Desktop" transform="translate(-658.000000, -226.000000)" fill="#000000">
            <g id="Group-5" transform="translate(380.000000, 124.000000)">
                <g id="Group-3" transform="translate(45.000000, 100.000000)">
                    <g id="You-Choose" transform="translate(188.000000, 0.000000)">
                        <g id="donation" transform="translate(43.000000, 0.000000)">
                            <g id="002-tick" transform="translate(2.411765, 2.374148)">
                                <path d="M25.0187621,13.5072457 L17.1776397,21.3696009 L13.6759301,17.9086304 C12.9664505,17.207405 11.8252355,17.2062688 11.1143611,17.9060802 L11.1143611,17.9060802 C10.4182306,18.5913772 10.4094483,19.7112455 11.0947453,20.407376 C11.1017685,20.4145103 11.1088522,20.4215848 11.1159955,20.4285987 L17.3704001,26.5697302 L27.9515483,16.4688057 C28.7791717,15.6787439 28.8096213,14.367351 28.0195595,13.5397276 C28.0108526,13.5306068 28.0020626,13.5215656 27.9931907,13.5126053 L27.9931907,13.5126053 C27.1784698,12.6897688 25.8509673,12.6831898 25.0281308,13.4979107 C25.0249981,13.5010125 25.0218752,13.5041242 25.0187621,13.5072457 Z" id="Path"></path>
                                <path d="M19.2790263,0 C8.63156493,0 0,8.49693685 0,18.9783279 C0,29.4597189 8.63156493,37.9566557 19.2790263,37.9566557 C29.9264877,37.9566557 38.5580526,29.4597189 38.5580526,18.9783279 C38.5580526,8.49693685 29.9265781,0 19.2790263,0 Z M19.2790256,34.5216013 C10.5587172,34.5216013 3.48947916,27.5626234 3.48947916,18.9783272 C3.48947916,10.394031 10.5587172,3.43505312 19.2790256,3.43505312 C27.9949059,3.44546156 35.0579084,10.3983011 35.0685721,18.9783272 C35.0685721,27.5627123 27.9994244,34.5216013 19.2790256,34.5216013 Z" id="Shape" fill-rule="nonzero"></path>
                            </g>
                        </g>
                    </g>
                </g>
            </g>
        </g>
    </g>
</svg>