<?xml version="1.0" encoding="UTF-8"?>
<svg width="39px" height="34px" viewBox="0 0 39 34" version="1.1" xmlns="http://www.w3.org/2000/svg" xmlns:xlink="http://www.w3.org/1999/xlink">
    <!-- Generator: sketchtool 52.5 (67469) - http://www.bohemiancoding.com/sketch -->
    <title>A9768AFB-F7C3-466E-94AB-20C965C8B6153x</title>
    <desc>Created with sketchtool.</desc>
    <g id="A/B-testing" stroke="none" stroke-width="1" fill="none" fill-rule="evenodd">
        <g id="Learnmore_update_Desktop" transform="translate(-846.000000, -228.000000)" fill="#000000" fill-rule="nonzero">
            <g id="Group-5" transform="translate(380.000000, 124.000000)">
                <g id="Group-3" transform="translate(45.000000, 100.000000)">
                    <g id="We-Donate-Copy-2" transform="translate(376.000000, 0.000000)">
                        <g id="donation-copy" transform="translate(43.000000, 0.000000)">
                            <g id="001-heart-outline" transform="translate(2.411765, 4.748296)">
                                <path d="M35.4555812,3.15026951 C33.4365026,1.1625828 30.7523862,0.0687753194 27.8968568,0.0687753194 C25.0409212,0.0687753194 22.3565002,1.1625828 20.3367107,3.15026951 L19.3417435,4.12991796 L18.3467764,3.15026951 C16.3275962,1.1625828 13.6425659,0.0687753194 10.7872396,0.0687753194 C7.93201481,0.0687753194 5.2467814,1.1625828 3.22780432,3.15026951 C-0.940638998,7.25409683 -0.940638998,13.9312007 3.22780432,18.0334286 L18.1644977,32.7372521 C18.4087206,32.9785655 18.7127553,33.1263124 19.0303974,33.183192 C19.1369212,33.2038846 19.2440544,33.2134812 19.3513906,33.2134812 C19.7739318,33.2134812 20.1971838,33.0548381 20.5189893,32.7372521 L35.4556827,18.0334286 C39.6243292,13.9312007 39.6243292,7.25409683 35.4555812,3.15026951 Z M33.1203864,15.7347532 L19.3418466,29.2985856 L5.56300216,15.7347532 C2.68228862,12.8993708 2.68228862,8.28602638 5.56300216,5.44914446 C6.95837317,4.07573734 8.81426434,3.32030844 10.7872403,3.32030844 C12.7604194,3.32030844 14.6158029,4.07573734 16.0106661,5.44914446 L18.1741462,7.5795799 C18.7942998,8.18916114 19.8900027,8.18916114 20.5100547,7.5795799 L22.6727224,5.44914446 C24.0676872,4.07573734 25.9231722,3.32030844 27.8969606,3.32030844 C29.8701397,3.32030844 31.7254216,4.07573734 33.1203864,5.44914446 C36.0014046,8.28602638 36.0014046,12.8992708 33.1203864,15.7347532 Z" id="Shape"></path>
                            </g>
                        </g>
                    </g>
                </g>
            </g>
        </g>
    </g>
</svg>