<?xml version="1.0" encoding="UTF-8"?>
<svg width="101px" height="18px" viewBox="0 0 101 18" version="1.1" xmlns="http://www.w3.org/2000/svg" xmlns:xlink="http://www.w3.org/1999/xlink">
    <!-- Generator: sketchtool 55.2 (78181) - https://sketchapp.com -->
    <title>3608DDB6-FEAB-4506-84B7-2E1A6B20EDE33x</title>
    <desc>Created with sketchtool.</desc>
    <g id="Asset-Artboard-Page" stroke="none" stroke-width="1" fill="none" fill-rule="evenodd">
        <g id="Revised_SG_CC_Logo_Color-LOGO-/-SG-Logo-/-Subdued" transform="translate(0.844581, 0.000000)" fill="#000000" fill-rule="nonzero">
            <g id="SG-Logo" transform="translate(0.000000, 1.000000)">
                <g id="Page-1">
                    <g id="Bag">
                        <path d="M3.42704334,2.86561727 C3.47366453,2.84414763 3.52028573,2.83022137 3.56653983,2.81977668 L3.56653983,2.51591351 C3.56653983,1.40606829 4.42370907,0.502989282 5.47709117,0.502989282 C6.53047322,0.502989282 7.38727536,1.40606829 7.38727536,2.51591351 L7.38727536,3.75090162 C7.38727536,3.78552383 7.36047739,3.81376319 7.32762225,3.81376319 L7.24943081,3.81376319 C7.21657573,3.81376319 7.1897777,3.78552383 7.1897777,3.75090162 L7.1897777,2.51572009 C7.1897777,1.52018622 6.42162924,0.71014234 5.47709117,0.71014234 C4.53218595,0.71014234 3.76348685,1.52018622 3.76348685,2.51572009 L3.76348685,2.80604384 C3.95345905,2.82422534 4.12232323,2.93041304 4.22914817,3.09888206 C4.23263559,3.10449124 4.2357559,3.10990701 4.23887622,3.11551619 C4.23942686,3.11628988 4.2403446,3.11783724 4.2407117,3.11880434 L4.2407117,2.51572009 C4.2407117,1.79755081 4.79539381,1.21303491 5.47709117,1.21303491 C6.15842137,1.21303491 6.71255284,1.79755081 6.71255284,2.51572009 L6.71255284,3.75090162 C6.71255284,3.90215623 6.77018695,4.03909774 6.86251159,4.14083678 C6.95942497,4.1773932 7.04844572,4.2309706 7.1281056,4.30060188 C7.16720132,4.31027289 7.20758188,4.31665576 7.24943081,4.31665576 L7.32762225,4.31665576 C7.62350166,4.31665576 7.86450023,4.06269501 7.86450023,3.75090162 L7.86450023,2.51591351 C7.86450023,1.12851028 6.79349755,9.67101111e-05 5.47709117,9.67101111e-05 C4.16050121,9.67101111e-05 3.08931498,1.12851028 3.08931498,2.51591351 L3.08931498,3.27779576 C3.14089197,3.10236362 3.25854625,2.94878797 3.42704334,2.86561727" id="Fill-1"></path>
                        <path d="M10.2654551,10.6638952 C10.2404926,10.6609938 10.2124097,10.6584794 10.1839598,10.6559649 L10.1927701,10.8395207 C10.2652716,11.0358423 10.2749996,11.2408677 10.2215871,11.437576 L10.3711787,14.5309457 C10.3720965,14.5477733 10.3660394,14.5649877 10.3553936,14.5769797 C10.3440136,14.5895521 10.3282285,14.5967086 10.3118928,14.5967086 L5.62829798,14.5967086 C5.59195547,14.7673053 5.56038523,14.9342269 5.53211882,15.0996012 L10.3118928,15.0996012 C10.4581805,15.0996012 10.5998796,15.0353857 10.7013817,14.9230085 C10.8021495,14.8110182 10.855562,14.6586031 10.8480365,14.5050274 L10.6578808,10.5727942 C10.5626194,10.6325611 10.4515728,10.6675702 10.3337349,10.6675702 C10.3234562,10.6675702 10.2751831,10.6650557 10.2654551,10.6638952" id="Fill-3"></path>
                        <path d="M9.42684204,4.50566625 C9.39674013,4.60392373 9.33194773,4.76968486 9.24182563,4.96233141 L9.85212275,4.96233141 C9.88369304,4.96233141 9.9099404,4.98844314 9.91159231,5.02209826 L9.98244187,6.4882236 C10.0398924,6.54876416 10.0894503,6.61742834 10.1298309,6.69402273 C10.2608842,6.95572031 10.2704287,7.24662434 10.1602999,7.51973368 C10.1300144,7.59574785 10.0892668,7.66789357 10.0426456,7.73713803 L10.0490698,7.86402168 C10.2083895,7.86943748 10.3684433,7.87291903 10.5273959,7.87407954 L10.3882665,4.99676021 C10.3737662,4.6954115 10.1384577,4.45943882 9.85212275,4.45943882 L9.43877265,4.45943882 C9.43620298,4.46930325 9.43528523,4.47955452 9.43216493,4.48941895 C9.43051296,4.49483472 9.4286775,4.50025048 9.42684204,4.50566625" id="Fill-5"></path>
                        <path d="M0.737879074,11.3809043 C0.648119635,11.2888363 0.584586207,11.1687223 0.564639663,11.03004 C0.528809765,10.8035449 0.616906991,10.578984 0.784051628,10.4333386 L0.806399143,9.97222475 C0.693553427,9.82309774 0.624663982,9.64283012 0.616352921,9.4418665 C0.604163369,9.19061363 0.692629976,8.94535673 0.865684699,8.75503126 L0.889140357,8.27032015 C0.731784301,8.1886968 0.575167007,8.11190901 0.419473162,8.0393764 L0.227764728,11.982828 C0.332484075,11.8747061 0.510894813,11.7141673 0.7299374,11.5485996 L0.737879074,11.3809043 Z" id="Fill-7"></path>
                        <path d="M4.19809186,14.6241746 C4.110723,14.6734967 4.0139932,14.7028966 3.91359243,14.7028966 C3.82053359,14.7028966 3.72802539,14.680073 3.64561233,14.6367469 C3.62340302,14.6253351 3.60394693,14.6106352 3.5835731,14.5967089 L0.6420326,14.5967089 C0.625696826,14.5967089 0.609728149,14.5895524 0.598898818,14.5771735 C0.587702391,14.5647946 0.581645304,14.5477736 0.582563044,14.5305592 L0.648273232,13.1698479 C0.475921648,13.1702347 0.303570061,13.0978955 0.180409342,12.9636619 L0.1057053,14.5048343 C0.0983633795,14.6589902 0.1519594,14.8115988 0.253094357,14.9237825 C0.354045765,15.035386 0.495561285,15.0996015 0.6420326,15.0996015 L4.19643992,15.0996015 C4.19056639,14.9618863 4.19019929,14.7992199 4.19809186,14.6241746" id="Fill-9"></path>
                        <path d="M7.48039738,5.08610621 L7.52727098,5.08610621 C7.66598648,4.87933147 7.80146277,4.67038777 7.93255652,4.45951609 L7.27118083,4.45951609 C7.2999529,4.50747433 7.32986818,4.55446859 7.35349552,4.60821075 C7.41675589,4.75232648 7.45810379,4.91475791 7.48039738,5.08610621" id="Fill-11"></path>
                        <path d="M0.910655082,6.50741066 C0.906984123,6.3932927 0.934332773,6.28381685 0.985909766,6.18633306 L1.04207545,5.02174991 C1.04354384,4.98848162 1.0697912,4.9623699 1.10154501,4.9623699 L2.2531252,4.9623699 C2.25385939,4.96159621 2.25422649,4.96082254 2.25496068,4.96024227 C2.41428035,4.8122758 2.61581606,4.73297351 2.83515593,4.73297351 C3.02017232,4.73297351 3.20372032,4.7921601 3.37350223,4.89563992 C3.34541939,4.74883397 3.31550106,4.60434906 3.28411435,4.45947731 L1.10154501,4.45947731 C0.815026569,4.45947731 0.579718024,4.69544999 0.565217736,4.99660527 L0.487944023,6.59831815 C0.609819898,6.61824042 0.77005731,6.65131527 0.947731781,6.69967033 C0.927174401,6.63777586 0.912490561,6.57356036 0.910655082,6.50741066" id="Fill-13"></path>
                    </g>
                    <g id="Star-Supporters" transform="translate(0.000000, 3.056001)">
                        <path d="M9.12529094,7.35275329 C8.96376871,7.31909816 8.80206289,7.30149691 8.65595871,7.30149691 C8.42780852,7.30149691 8.1394546,7.34346911 8.06530122,7.5366959 C7.9571914,7.79607243 8.29528686,8.1916168 8.67908571,8.46936826 C8.87309599,8.60979132 9.09390424,8.68715944 9.29966158,8.68715944 C9.56543906,8.68715944 9.77082932,8.56066258 9.8644388,8.3359083 C9.92445898,8.17846423 9.913079,8.00419259 9.83158367,7.84442749 C9.7073217,7.6026522 9.44356317,7.41928982 9.12529094,7.35275329" id="Fill-15"></path>
                        <path d="M10.4141468,6.7185093 C10.4011149,6.71386723 10.31136,6.68485421 10.1562619,6.65584115 C9.84110997,6.59201248 9.37985379,6.56474022 8.83343137,6.58253491 L8.75010058,6.5846625 C8.53057717,6.59162565 8.28297089,6.60825977 8.02949111,6.62586101 C7.6913957,6.64849121 7.34063541,6.67286216 7.03723059,6.67363584 L6.96014039,6.67421607 C6.59653179,6.67421607 6.46786465,7.11153924 6.65673552,7.34731846 C7.02107834,7.77922583 7.40414303,8.37476675 7.74205495,8.90048293 C7.99681957,9.29757466 8.23836874,9.67300331 8.44632863,9.93508772 C8.7750631,10.4310172 9.33873907,10.8567351 9.50356519,10.9466755 L9.50283097,10.9476426 C9.5437622,10.9729807 9.59056694,10.9859398 9.63884006,10.9859398 C9.72345568,10.9859398 9.80348263,10.9460952 9.85799639,10.8762705 C9.94756782,10.7625395 9.94371331,10.5987125 9.85065445,10.4960064 C9.38352476,9.97357836 8.92171796,9.3084062 8.51479205,8.72195607 L8.42210032,8.58830266 C8.26222996,8.35368391 8.10915092,8.13956772 7.97350897,7.95020932 C7.77913161,7.67826049 7.62054614,7.45737459 7.54015211,7.30786074 C7.66606605,7.27788061 7.95386934,7.26704907 8.19248176,7.25892545 C8.33436435,7.25331626 8.48799402,7.24770707 8.64547825,7.23861634 C8.97788369,7.22488348 9.3908667,7.20805591 9.73465213,7.20805591 C9.97766968,7.20805591 10.1625025,7.21598614 10.3010813,7.23262031 C10.3058535,7.23320054 10.328797,7.23436106 10.3337528,7.23436106 C10.45673,7.23436106 10.5631878,7.15293115 10.592372,7.03533163 C10.6250435,6.90148483 10.5479533,6.76241573 10.4141468,6.7185093" id="Fill-17"></path>
                        <path d="M6.27943442,8.97514262 C6.25814287,8.97514262 6.2372184,8.97785049 6.21023684,8.98578071 C5.95547222,9.07204613 5.87507819,9.59466758 5.90774973,10.0741563 C5.94078834,10.5855594 6.24511096,10.9859393 6.60009278,10.9859393 C6.64836595,10.9859393 6.69608839,10.9787827 6.74179188,10.9648565 C6.89670638,10.9192093 7.02005064,10.8027703 7.08796338,10.6375895 C7.19001609,10.3884642 7.16230036,10.0466907 7.01399354,9.74476171 C6.82604042,9.36198308 6.52612293,8.97514262 6.27943442,8.97514262" id="Fill-19"></path>
                        <path d="M4.85521193,12.392743 L4.85521193,12.392743 L4.85521193,12.3929364 L4.85521193,12.392743 Z M8.16751918,10.1479079 C8.07831489,9.97015475 7.85952565,9.58524847 7.39680115,9.01195091 L7.34302156,8.94367357 C7.20315797,8.76940194 7.03998383,8.58043037 6.87277159,8.38701014 C6.64278595,8.12028366 6.40472416,7.844273 6.21108102,7.5870241 C5.96163929,7.27000832 5.53103566,7.39108938 5.47230032,7.6930184 C5.38015922,8.25877252 5.17752222,8.93980518 4.99948066,9.5405684 C4.86145256,10.004777 4.73168412,10.4432606 4.66689167,10.7831 C4.5128949,11.358912 4.54336387,12.0933286 4.57658605,12.2842343 L4.57511767,12.2842343 C4.59402311,12.4234969 4.71259513,12.5300715 4.85099032,12.5318123 L4.85521193,12.5318123 C4.9950755,12.5318123 5.10960946,12.4291061 5.12833136,12.2881028 C5.22249148,11.5917899 5.4229259,10.8126933 5.59949908,10.1250843 L5.65162671,9.92179969 C5.72669785,9.64385478 5.79057254,9.38293094 5.84692181,9.15218058 C5.92694871,8.82336618 5.99302599,8.55528575 6.0526791,8.3968746 C6.14995954,8.47772423 6.33552658,8.70692723 6.48952337,8.89705931 C6.58405055,9.01369171 6.68647034,9.14018852 6.79347886,9.26726561 C7.14350486,9.69395064 7.62146391,10.2782731 7.8290567,10.6279769 C7.90027334,10.7484778 8.0528017,10.798767 8.15889246,10.7449962 C8.27856575,10.687357 8.33234529,10.5362958 8.28333801,10.4055437 C8.28315447,10.40477 8.25029934,10.3101875 8.16751918,10.1479079 L8.16751918,10.1479079 Z" id="Fill-21"></path>
                        <path d="M3.9086915,8.45822734 C3.86427289,8.42573272 3.80902494,8.40987228 3.74533378,8.40987228 C3.53590551,8.40987228 3.20808877,8.5967162 2.91129165,8.88568604 C2.67341344,9.11604951 2.53556889,9.42687582 2.55135401,9.69921154 C2.5619998,9.87831863 2.63945706,10.0307338 2.7692255,10.1280242 C2.85769563,10.1955278 2.96286864,10.2316974 3.07318099,10.2316974 C3.37199714,10.2316974 3.68145908,9.97502875 3.84463325,9.59321724 C4.03313705,9.15163884 4.12803137,8.63037133 3.9086915,8.45822734" id="Fill-24"></path>
                        <path d="M4.93887309,7.67025264 C5.02348872,7.25014395 4.67364622,6.97722801 4.3986913,7.12558128 C3.919631,7.40429986 3.28749165,7.66193558 2.72858797,7.8888175 C2.30018692,8.06366936 1.89619775,8.22768974 1.60362223,8.38610087 C1.07885847,8.62207352 0.546385696,9.10717145 0.430934002,9.24662743 L0.430016261,9.2460472 C0.336039681,9.3503007 0.331634529,9.51083947 0.419370477,9.6280521 C0.474067783,9.70039126 0.553360522,9.74178322 0.638893894,9.74178322 C0.686249281,9.74178322 0.733054025,9.7284372 0.773434587,9.70348602 C1.33637633,9.35474937 2.01733944,9.04489015 2.61827562,8.77081369 L2.85633738,8.66249836 C3.11146911,8.55031464 3.34787895,8.43851776 3.55657304,8.33987345 C3.84896501,8.20119115 4.08665968,8.08900743 4.23918808,8.04103921 C4.24065646,8.16966366 4.18504141,8.46772422 4.13970506,8.71491525 C4.11162221,8.86539617 4.08115324,9.02864286 4.05362104,9.19614479 C3.94844804,9.78143438 3.8175783,10.5092747 3.68670857,10.8970822 C3.64008738,11.0357645 3.69166437,11.1850849 3.80564768,11.2433044 C3.83923697,11.2609056 3.87613012,11.269803 3.91357391,11.269803 C4.00406308,11.269803 4.08978,11.2166124 4.13915441,11.1274457 C4.14686343,11.113326 4.19366817,11.0282211 4.25515676,10.8771599 C4.33169627,10.6936041 4.48073725,10.2740756 4.61876536,9.5342433 L4.63546823,9.44759104 C4.67713363,9.22651176 4.71549516,8.97816017 4.75459088,8.72361915 C4.81002238,8.36463124 4.86710581,7.99307099 4.93887309,7.67025264" id="Fill-26"></path>
                        <path d="M1.73111471,6.96502286 C1.83169901,6.96502286 1.9344859,6.95148345 2.03617149,6.92401779 C2.48164251,6.80467754 2.92821481,6.55884042 2.92142353,6.27141801 C2.90398647,5.98805738 2.43704034,5.78728717 1.98239193,5.71398093 C1.63181523,5.65653514 1.30656816,5.75440577 1.12155177,5.95827064 C1.01637876,6.07432279 0.964251131,6.21629325 0.971776599,6.36948203 C0.985909797,6.72015287 1.29812496,6.96502286 1.73111471,6.96502286" id="Fill-28"></path>
                        <path d="M2.24167187,5.53589904 C2.48542363,5.6778695 2.71651058,5.80301235 2.92098306,5.91364872 C3.20217862,6.06625728 3.43198073,6.19081995 3.56431884,6.28946426 C3.4666713,6.37244152 3.20878634,6.51363831 2.99495291,6.63065754 C2.86775414,6.70009539 2.73009313,6.77572272 2.58931181,6.85676579 C2.11740987,7.11846336 1.47242215,7.47783812 1.10220581,7.61149153 C0.974089302,7.65829918 0.895897845,7.78789075 0.916455226,7.91806255 C0.934259382,8.04243178 1.03888175,8.13256558 1.16589697,8.13256558 C1.17195406,8.13256558 1.2000369,8.13101823 1.20664463,8.12985771 C1.21343591,8.1286972 1.30796313,8.11477095 1.46783345,8.06835008 C1.65284985,8.01670687 2.05812386,7.878218 2.69319998,7.53122213 L2.76790402,7.49157097 C2.95659138,7.38905822 3.16308289,7.26623641 3.37526439,7.14109351 C3.67738442,6.96256664 3.98959959,6.77823715 4.27685223,6.63491277 C4.63697343,6.44381357 4.62155539,5.98231295 4.34329661,5.8502069 C3.8359699,5.62970784 3.24935046,5.2660778 2.73156151,4.94616076 C2.33785103,4.70225786 1.96598275,4.47189436 1.66771723,4.32992392 C1.1167061,4.01503578 0.382697605,3.89511524 0.274587826,3.89492182 C0.148490342,3.89492182 0.0389121786,3.98911747 0.00770901649,4.12567215 C-0.0242283376,4.27073733 0.0455199069,4.41367487 0.172718679,4.46512465 C0.776958735,4.71057493 1.42488322,5.07594574 1.99681882,5.39799041 L2.24167187,5.53589904 Z" id="Fill-30"></path>
                        <path d="M2.7410326,3.41210633 C3.04296907,3.65407503 3.3619755,3.80474938 3.57268861,3.80474938 L3.57287215,3.80474938 C3.65491811,3.80474938 3.72228023,3.78269947 3.77826237,3.73453784 C3.97576002,3.54440577 3.83461161,3.03513033 3.60701208,2.61463478 C3.42254634,2.27402177 3.11987568,2.0542964 2.83519273,2.0542964 C2.70450655,2.0542964 2.58446616,2.1011041 2.48920475,2.18949713 C2.36861371,2.29935982 2.304739,2.45835124 2.31042899,2.63861888 C2.31905575,2.91037429 2.4840654,3.20727432 2.7410326,3.41210633" id="Fill-32"></path>
                        <path d="M1.56171832,3.81090035 C1.71553155,3.93178799 2.07088051,4.18052641 2.72284306,4.48806458 L2.79919904,4.52500784 C2.9928422,4.6172693 3.21328337,4.71262547 3.43923098,4.81030269 C3.75933872,4.94782447 4.08972514,5.09018177 4.37404102,5.23814824 C4.73526351,5.4135804 5.08051733,5.14163156 4.99755363,4.80043826 C4.84612652,4.24628929 4.75104865,3.53740414 4.66698365,2.91188311 C4.6029254,2.43510223 4.54235455,1.98443309 4.46140988,1.64865557 C4.36174331,1.05504887 4.0333759,0.402062171 3.93040547,0.252354911 L3.93132321,0.252354911 C3.85882174,0.137850133 3.7141859,0.089301655 3.57891102,0.15119613 C3.45318062,0.213284024 3.38857172,0.363378125 3.42968648,0.499545968 C3.62718414,1.16317079 3.76209193,1.94323458 3.88103105,2.63123035 L3.92288,2.87184512 C3.9691341,3.15481892 4.01795787,3.41477571 4.06145875,3.64475237 C4.12441572,3.97956279 4.17580916,4.25267216 4.1866385,4.43139246 C4.05943972,4.40160574 3.80926377,4.2845865 3.56642975,4.17008172 C3.43923098,4.11089513 3.30230416,4.04667961 3.16005444,3.98304435 C2.67236736,3.75770979 2.00498677,3.44862425 1.67349906,3.2254173 C1.56373734,3.15133736 1.4099241,3.17029254 1.33118201,3.26274741 C1.28859887,3.31052221 1.26620601,3.37338379 1.26840858,3.43992034 C1.27042761,3.51187267 1.30163078,3.58227764 1.35100519,3.63082611 C1.35155584,3.63159979 1.41965215,3.70181134 1.56171832,3.81090035" id="Fill-34"></path>
                        <path d="M6.32021864,3.4381601 C6.32664283,3.43970746 6.3514218,3.4410614 6.35839661,3.4410614 C6.6109587,3.4410614 6.88499588,3.01882505 7.04394843,2.60026369 C7.16453948,2.28479532 7.16178627,1.941281 7.03679009,1.70453465 C6.95419346,1.5463169 6.82112118,1.44322393 6.66363695,1.41285695 C6.48339279,1.37707421 6.31214249,1.44245025 6.1741144,1.59061014 C6.00378186,1.77474619 5.90576719,2.07145281 5.91310913,2.3832462 C5.92265361,2.86602308 6.05040306,3.37819983 6.32021864,3.4381601" id="Fill-36"></path>
                        <path d="M5.1947389,2.95563462 L5.21456209,3.04131978 C5.2665062,3.25698333 5.33313411,3.49933887 5.40159753,3.74846411 C5.49887797,4.10010207 5.5985445,4.46334525 5.66590663,4.7842294 C5.76098454,5.19834207 6.19709461,5.27474307 6.37715517,5.02619809 C6.69395903,4.55966852 7.15833551,4.04284969 7.56764755,3.58695823 C7.884635,3.23415974 8.18491953,2.8999296 8.38608815,2.6206308 C8.7608932,2.16764064 9.04447485,1.49047645 9.09146313,1.31562457 L9.09219734,1.31581799 C9.13422982,1.18119752 9.0747603,1.03342447 8.95104891,0.964760287 C8.830825,0.898223734 8.67205593,0.941356441 8.59753546,1.05682832 C8.22383171,1.63844292 7.72292918,2.24114033 7.28112915,2.7726591 L7.14255039,2.93958075 C6.9590024,3.15679166 6.79362561,3.36104341 6.64880626,3.54150447 C6.4402957,3.79991389 6.27033024,4.01035509 6.14827082,4.12892169 C6.0919216,4.00435907 6.01685046,3.69933538 5.95370992,3.44672857 C5.91975355,3.30746601 5.88230975,3.15795218 5.84229627,3.00553704 L5.83220112,2.9649188 C5.6848121,2.37169898 5.51796693,1.69898345 5.47887121,1.30576014 C5.46510514,1.16204891 5.36176759,1.05334675 5.22245465,1.04754414 C5.0937875,1.04754414 4.98806384,1.15373184 4.97631677,1.29686281 C4.97539903,1.30866144 4.96750647,1.40711234 4.9737471,1.57538793 C4.97980418,1.77828574 5.01688088,2.22566671 5.1947389,2.95563462" id="Fill-38"></path>
                        <path d="M8.62734396,3.81064876 C8.27144439,4.12515005 7.97024211,4.55299559 8.09927639,4.79747875 C8.16076495,4.92146112 8.31347691,4.98432269 8.55245641,4.98432269 L8.55282349,4.98432269 C8.73471956,4.98432269 8.95516073,4.94660575 9.17303222,4.87736131 C9.48341189,4.77968409 9.72954979,4.56982315 9.83086828,4.31682949 C9.89804682,4.14971441 9.89382522,3.97486253 9.81691862,3.82090003 C9.71872042,3.63463635 9.53168501,3.52786839 9.30335128,3.52786839 C9.07832145,3.52786839 8.83200001,3.63115479 8.62734396,3.81064876" id="Fill-40"></path>
                        <path d="M11.660805,5.40207181 C11.6354753,5.26667765 11.5253465,5.16880702 11.378141,5.16880702 L11.3763056,5.16880702 C11.1516428,5.18718194 10.9042201,5.19627268 10.6206384,5.19627268 C10.1603001,5.19627268 9.6786701,5.17228857 9.25393998,5.15081893 L9.06984138,5.14134131 C8.78772806,5.12432035 8.52562151,5.11561645 8.29581941,5.10787962 C7.97718011,5.09762836 7.71929515,5.08892444 7.5684187,5.06532718 C7.62403375,4.94231191 7.8031766,4.69047877 7.95166692,4.48158492 C8.03408,4.36553279 8.12291721,4.2403899 8.21230509,4.1104115 C8.55076762,3.63169644 8.97182672,3.03615555 9.24714872,2.75028045 C9.34534692,2.64912167 9.36131558,2.49573943 9.28514314,2.38761752 C9.20952137,2.27833509 9.05350558,2.25280362 8.94117418,2.33191249 C8.93511713,2.33636116 8.85545727,2.3912925 8.73137885,2.5040565 C8.48450679,2.72513582 8.16109517,3.10462631 7.84539262,3.54465733 L7.79436629,3.61486888 C7.66423077,3.79494311 7.5240001,4.0051909 7.37973132,4.22066104 C7.18149952,4.51620715 6.97665993,4.82239137 6.78375096,5.07345083 C6.53357508,5.41290335 6.747592,5.81715162 7.04512335,5.8092214 C7.59429897,5.78214252 8.27544562,5.84171596 8.86812209,5.8943263 C9.29266862,5.93223666 9.69335392,5.96840622 9.99896132,5.96840622 L10.0804566,5.96705231 C10.1340526,5.97111409 10.18875,5.9726615 10.2430802,5.9726615 C10.7625211,5.9726615 11.3394124,5.80399905 11.4895547,5.73630194 L11.4897382,5.73668878 C11.6143673,5.68794688 11.6877865,5.54346199 11.660805,5.40207181" id="Fill-42"></path>
                    </g>
                </g>
                <g id="Word-mark" transform="translate(15.476190, 4.125000)">
                    <g id="Shopping">
                        <path d="M3.90376365,9.6074293 C3.25143662,9.6074293 2.67159906,9.5273682 2.16423359,9.36724357 C1.65686811,9.20711893 1.18122012,8.93580071 0.737275332,8.55328081 C0.492652692,8.3397813 0.370343207,8.10404583 0.370343207,7.84606724 C0.370343207,7.64146359 0.447352882,7.46132611 0.601374541,7.30564935 C0.755396205,7.14997264 0.941125425,7.07213548 1.15856777,7.07213548 C1.33070963,7.07213548 1.48472897,7.12550953 1.62063044,7.23225928 C1.98303435,7.52582109 2.33637286,7.73931738 2.68065657,7.87275455 C3.02494029,8.00619178 3.43263857,8.07290935 3.90376365,8.07290935 C4.41112912,8.07290935 4.84827228,7.96171338 5.21520624,7.73931806 C5.5821402,7.51692274 5.76560445,7.2411567 5.76560445,6.91201162 C5.76560445,6.51170006 5.58440516,6.19812738 5.22200128,5.97128419 C4.85959737,5.74444094 4.28428979,5.57319916 3.49606129,5.4575536 C1.51189989,5.17288759 0.519834072,4.26552834 0.519834072,2.73544862 C0.519834072,2.17501244 0.669323442,1.68797402 0.968306665,1.27431875 C1.26728989,0.860663471 1.67498817,0.54486687 2.19141374,0.326919469 C2.70783932,0.108972067 3.28314689,0 3.91735373,0 C4.48813989,0 5.02494263,0.0845089496 5.52777804,0.253529384 C6.03061348,0.422549819 6.4496367,0.64494179 6.78486034,0.920711976 C7.04760315,1.12531566 7.17897261,1.36105115 7.17897261,1.62792552 C7.17897261,1.8325292 7.10196295,2.0126667 6.94794129,2.16834342 C6.79391963,2.32402013 6.61272039,2.40185733 6.4043381,2.40185733 C6.26843665,2.40185733 6.14612719,2.36182677 6.03740599,2.28176446 C5.80184344,2.0949524 5.47341984,1.92371058 5.0521253,1.76803386 C4.63083075,1.61235715 4.25257735,1.53451996 3.91735373,1.53451996 C3.34656757,1.53451996 2.90489444,1.63904419 2.59232106,1.84809578 C2.27974769,2.05714736 2.12346335,2.33068949 2.12346335,2.66873036 C2.12346335,3.05125029 2.28427767,3.34035986 2.60591114,3.53606773 C2.92754461,3.7317756 3.43263748,3.89189782 4.12120491,4.01643919 C4.90037332,4.14987638 5.52324571,4.3211182 5.98984073,4.53016979 C6.45643575,4.73922138 6.80750926,5.0238831 7.04307181,5.38416349 C7.27863436,5.7444439 7.39641385,6.22258665 7.39641385,6.81860607 C7.39641385,7.37904226 7.23559956,7.87052849 6.91396605,8.29307959 C6.59233259,8.71563068 6.16424943,9.04032295 5.62970365,9.2671662 C5.09515787,9.49400939 4.51985029,9.6074293 3.90376365,9.6074293 Z" id="Path"></path>
                        <path d="M9.53914555,8.83578586 C9.53914555,9.25811137 9.20549918,9.58494849 8.79205286,9.58494849 C8.45840648,9.58494849 8.17807473,9.33955734 8.08451621,9.02641159 C8.07110155,8.97199724 8.05803083,8.90389158 8.05803083,8.83578586 L8.05803083,0.79931409 C8.05803083,0.376988579 8.39167721,0.0501514648 8.79205286,0.0501514648 C9.20549918,0.0501514648 9.53914555,0.376988579 9.53914555,0.79931409 L9.53914555,3.16932199 C9.96635045,2.93797327 10.44687,2.77402813 10.9672896,2.77402813 C12.5822068,2.77402813 13.8765483,4.1228017 13.8765483,5.75733833 L13.8765483,8.83578586 C13.8765483,9.25811137 13.5566605,9.58494849 13.1425263,9.58494849 C12.72908,9.58494849 12.4085043,9.25811137 12.4085043,8.83578586 L12.4085043,5.75733833 C12.4085043,4.95376136 11.7680408,4.29973607 10.9672896,4.28639578 C10.1799529,4.29973607 9.55290413,4.95376136 9.53914555,5.75733833 L9.53914555,8.83578586 Z" id="Fill-4"></path>
                        <path d="M16.0183511,6.19307411 C16.0183511,6.77899365 16.1920535,7.25573349 16.4992146,7.63698494 C16.8325169,7.9641731 17.2727926,8.1407564 17.7801414,8.1407564 C18.2472463,8.1407564 18.6744512,7.9641731 19.0080976,7.63698494 C19.341744,7.25573349 19.5285171,6.77899365 19.5285171,6.19307411 C19.5285171,5.6348883 19.341744,5.1444571 19.0080976,4.77654595 C18.6744512,4.47709155 18.2472463,4.25908313 17.7801414,4.25908313 C17.2727926,4.25908313 16.8325169,4.47709155 16.4992146,4.77654595 C16.1920535,5.1444571 16.0183511,5.6348883 16.0183511,6.19307411 M15.4845169,8.59046439 C14.9104388,7.99120455 14.5637217,7.14690464 14.5637217,6.19307397 C14.5637217,5.26697699 14.9104388,4.4634001 15.4845169,3.80972591 C16.0850804,3.16904095 16.8593463,2.77409817 17.7801415,2.77409817 C18.6610366,2.77409817 19.4617879,3.16904095 20.0086928,3.80972591 C20.6092562,4.4634001 20.9429026,5.26697699 20.9429026,6.19307397 C20.9429026,7.14690464 20.6092562,7.99120455 20.0086928,8.59046439 C19.4617879,9.23079832 18.6610366,9.62574107 17.7801415,9.62574107 C16.8593463,9.62574107 16.0850804,9.23079832 15.4845169,8.59046439" id="Fill-7"></path>
                        <path d="M23.2772926,6.19307418 C23.2772926,6.72422834 23.4509951,7.24204224 23.7977122,7.55553905 C24.1313585,7.93643945 24.5719781,8.12741624 25.0655683,8.12741624 C25.5192586,8.12741624 25.9732928,7.93643945 26.3203538,7.55553905 C26.6271708,7.24204224 26.8404294,6.72422834 26.8404294,6.19307418 C26.8404294,5.66191997 26.6271708,5.17148877 26.3203538,4.81762002 C25.9732928,4.44970886 25.5192586,4.25908313 25.0655683,4.25908313 C24.5719781,4.25908313 24.1313585,4.44970886 23.7977122,4.81762002 C23.4509951,5.17148877 23.2772926,5.66191997 23.2772926,6.19307418 M21.8092487,11.4101803 L21.8092487,6.20711635 L21.8092487,6.19307397 L21.8092487,3.49622911 C21.8092487,3.10093527 22.1298244,2.77409817 22.5167854,2.77409817 C22.8903317,2.77409817 23.1971488,3.03318064 23.2508074,3.33298609 C23.7443976,3.00579794 24.3852051,2.77409817 25.0655684,2.77409817 C26.8404295,2.77409817 28.2954029,4.32718872 28.2954029,6.19307397 C28.2954029,8.05931027 26.8404295,9.57132674 25.0655684,9.57132674 C24.3982757,9.57132674 23.7581563,9.3670097 23.2772927,9.01278988 L23.2772927,11.4101803 C23.2772927,11.7914318 22.9436464,12.1456516 22.5167854,12.1456516 C22.1298244,12.1456516 21.8092487,11.7914318 21.8092487,11.4101803" id="Fill-9"></path>
                        <path d="M30.6385639,6.19307418 C30.6385639,6.72422834 30.8122664,7.24204224 31.1589835,7.55553905 C31.4926298,7.93643945 31.9332494,8.12741624 32.4268396,8.12741624 C32.8805299,8.12741624 33.3345641,7.93643945 33.6816251,7.55553905 C33.9884421,7.24204224 34.2017006,6.72422834 34.2017006,6.19307418 C34.2017006,5.66191997 33.9884421,5.17148877 33.6816251,4.81762002 C33.3345641,4.44970886 32.8805299,4.25908313 32.4268396,4.25908313 C31.9332494,4.25908313 31.4926298,4.44970886 31.1589835,4.81762002 C30.8122664,5.17148877 30.6385639,5.66191997 30.6385639,6.19307418 M29.17052,11.4101803 L29.17052,6.20711635 L29.17052,6.19307397 L29.17052,3.49622911 C29.17052,3.10093527 29.4910956,2.77409817 29.8780566,2.77409817 C30.251603,2.77409817 30.55842,3.03318064 30.6120787,3.33298609 C31.1056689,3.00579794 31.7464763,2.77409817 32.4268397,2.77409817 C34.2017008,2.77409817 35.6566741,4.32718872 35.6566741,6.19307397 C35.6566741,8.05931027 34.2017008,9.57132674 32.4268397,9.57132674 C31.759547,9.57132674 31.1190836,9.3670097 30.638564,9.01278988 L30.638564,11.4101803 C30.638564,11.7914318 30.3049176,12.1456516 29.8780566,12.1456516 C29.4910956,12.1456516 29.17052,11.7914318 29.17052,11.4101803" id="Fill-12"></path>
                        <path d="M37.9799518,3.53716274 L37.9799518,8.84940674 C37.9799518,9.25804088 37.6727908,9.58487799 37.2593445,9.58487799 C36.8589689,9.58487799 36.5387372,9.25804088 36.5387372,8.84940674 L36.5387372,3.53716274 C36.5387372,3.10114589 36.8589689,2.78800013 37.2593445,2.78800013 C37.6727908,2.78800013 37.9799518,3.10114589 37.9799518,3.53716274 L37.9799518,3.53716274 Z M37.9799518,1.07166664 C37.9799518,1.48030079 37.6727908,1.82082925 37.2593445,1.82082925 C36.8589689,1.82082925 36.5387372,1.48030079 36.5387372,1.07166664 L36.5387372,0.785552519 C36.5387372,0.377269423 36.8589689,0.0500812516 37.2593445,0.0500812516 C37.6727908,0.0500812516 37.9799518,0.377269423 37.9799518,0.785552519 L37.9799518,1.07166664 Z" id="Fill-15"></path>
                        <path d="M44.6100888,5.60764599 L44.6100888,8.86302774 C44.6100888,9.25797055 44.3029278,9.58480765 43.9159668,9.58480765 C43.5420765,9.58480765 43.2084301,9.25797055 43.2084301,8.86302774 L43.2084301,5.60764599 C43.2084301,4.84479206 42.5813813,4.23184085 41.82053,4.23184085 C41.0734373,4.23184085 40.4862885,4.84479206 40.4862885,5.60764599 L40.4862885,8.86302774 C40.4862885,8.90375077 40.4862885,8.94447376 40.4591153,8.99923917 C40.392386,9.32607627 40.0989836,9.58480765 39.7522666,9.58480765 C39.3518909,9.58480765 39.0447299,9.25797055 39.0447299,8.86302774 L39.0447299,5.60764599 L39.0447299,3.49601856 C39.0447299,3.10107577 39.3518909,2.77423867 39.7522666,2.77423867 C40.0322543,2.77423867 40.2861007,2.93783275 40.4061446,3.19656416 C40.8065203,2.93783275 41.3001105,2.77423867 41.82053,2.77423867 C43.3687179,2.77423867 44.6100888,4.06859783 44.6100888,5.60764599" id="Fill-18"></path>
                        <path d="M50.3326083,6.20701135 C50.3326083,5.66181477 50.1190058,5.14435194 49.8252594,4.81751483 C49.4785424,4.43591232 49.0647521,4.23159524 48.5577472,4.23159524 C48.0906422,4.23159524 47.6500227,4.43591232 47.3297909,4.81751483 C47.0092152,5.14435194 46.7959567,5.66181477 46.7959567,6.20701135 C46.7959567,6.77888854 47.0092152,7.29670244 47.3297909,7.60984818 C47.6500227,7.97775934 48.0906422,8.16838507 48.5577472,8.16838507 C49.0647521,8.16838507 49.4785424,7.97775934 49.8252594,7.60984818 C50.1190058,7.29670244 50.3326083,6.77888854 50.3326083,6.20701135 L50.3326083,6.20701135 Z M51.7607519,6.22070252 L51.7607519,8.75430436 C51.7607519,10.5383926 50.3326079,12.0230264 48.557747,12.0230264 C48.0638128,12.0230264 47.5698786,11.9008574 47.1564323,11.6824979 C46.8090273,11.5192549 46.6490835,11.0695467 46.8362006,10.7019866 C47.0092152,10.3340755 47.4233494,10.1978641 47.7968957,10.3614582 C48.0239128,10.4836272 48.2774152,10.5517328 48.557747,10.5517328 C49.4248835,10.5517328 50.1324201,9.92544136 50.3061226,9.09483277 C49.8252591,9.43501017 49.211625,9.63932725 48.557747,9.63932725 C47.6768519,9.63932725 46.8626859,9.24438445 46.2886079,8.60405056 C45.7148737,8.00479072 45.3543981,7.16049082 45.3543981,6.20701115 C45.3543981,5.26722286 45.7148737,4.42257192 46.2886079,3.78223802 C46.8626859,3.16928682 47.6768519,2.77434404 48.557747,2.77434404 C49.251525,2.77434404 49.865503,2.99235246 50.3460226,3.34657225 C50.4127518,3.0193841 50.7064982,2.77434404 51.0532153,2.77434404 C51.4535909,2.77434404 51.7607519,3.10118114 51.7607519,3.49612392 L51.7607519,6.20701115 L51.7607519,6.22070252 Z" id="Fill-20"></path>
                    </g>
                    <g id="Gives" transform="translate(53.224691, 0.000000)">
                        <path d="M11.3179608,4.00640197 L11.3179608,9.31864598 C11.3179608,9.72728011 11.0107999,10.0541172 10.5973536,10.0541172 C10.1969779,10.0541172 9.87674622,9.72728011 9.87674622,9.31864598 L9.87674622,4.00640197 C9.87674622,3.57038512 10.1969779,3.25723936 10.5973536,3.25723936 C11.0107999,3.25723936 11.3179608,3.57038512 11.3179608,4.00640197 L11.3179608,4.00640197 Z M11.3179608,1.54090587 C11.3179608,1.94954002 11.0107999,2.29006849 10.5973536,2.29006849 C10.1969779,2.29006849 9.87674622,1.94954002 9.87674622,1.54090587 L9.87674622,1.25479175 C9.87674622,0.846508656 10.1969779,0.519320484 10.5973536,0.519320484 C11.0107999,0.519320484 11.3179608,0.846508656 11.3179608,1.25479175 L11.3179608,1.54090587 Z" id="Fill-26"></path>
                        <path d="M17.7766263,4.10137619 L15.587975,9.38623724 C15.5749043,9.42696022 15.5477311,9.46803426 15.5346603,9.48172563 C15.5346603,9.49506588 15.5212457,9.49506588 15.5212457,9.49506588 C15.4944164,9.52279967 15.4679311,9.56317159 15.4414457,9.59090533 C15.4414457,9.60424564 15.4276872,9.60424564 15.4276872,9.60424564 C15.4012018,9.64496862 15.3747165,9.65901105 15.3475432,9.68604266 C15.3475432,9.68604266 15.3344725,9.68604266 15.3344725,9.69938297 C15.3079872,9.72711676 15.2808139,9.75414838 15.2412579,9.76748868 L15.2140847,9.76748868 L15.2140847,9.78117999 C15.1745286,9.78117999 15.1342847,9.79522242 15.1074554,9.80856272 L15.0806261,9.80856272 C15.0273115,9.82225404 14.9874115,9.82225404 14.9471676,9.82225404 C14.9206822,9.82225404 14.8804383,9.82225404 14.8271237,9.80856272 L14.8006384,9.80856272 C14.7603944,9.79522242 14.7339091,9.78117999 14.6936651,9.78117999 L14.6936651,9.76748868 L14.6671798,9.76748868 C14.6269358,9.75414838 14.6004505,9.72711676 14.5471359,9.69938297 C14.5471359,9.68604266 14.5337212,9.68604266 14.5337212,9.68604266 C14.5068919,9.65901105 14.4804066,9.64496862 14.4535773,9.60424564 C14.4401627,9.60424564 14.4401627,9.60424564 14.426748,9.59090533 C14.4136773,9.56317159 14.386848,9.52279967 14.3600187,9.49506588 C14.3469481,9.49506588 14.3469481,9.49506588 14.3469481,9.48172563 C14.3201188,9.46803426 14.3067041,9.42696022 14.2932895,9.38623724 L12.1311234,4.10137619 C11.9711795,3.73346505 12.144538,3.33852227 12.5184284,3.17492819 C12.8386601,3.01133411 13.2524504,3.20231089 13.4127382,3.57022203 L14.9471676,7.27496087 L16.4956995,3.57022203 C16.6422287,3.20231089 17.0426044,3.01133411 17.3896653,3.17492819 C17.7632117,3.33852227 17.9369142,3.73346505 17.7766263,4.10137619" id="Fill-29"></path>
                        <path d="M19.5619982,5.85384192 L23.3387375,5.85384192 C23.205279,5.30899641 22.5249156,4.50541946 21.3636886,4.41028213 C20.229291,4.46469647 19.6689714,5.2956561 19.5619982,5.85384192 M18.1073688,6.52120739 C18.1207835,4.66901348 19.5355128,3.1159229 21.3636884,3.1159229 C23.0986493,3.1159229 24.4734787,4.43731371 24.579764,6.27651838 L24.579764,6.34462409 C24.579764,6.37165571 24.579764,6.43976143 24.5666933,6.46679304 C24.5264494,6.79363014 24.2464616,7.01198966 23.8729153,7.01198966 L19.6287274,7.01198966 C19.6954566,7.32478433 19.8423298,7.67900411 20.0824176,7.91070388 C20.3627493,8.23754098 20.8965835,8.48258105 21.3636884,8.52365509 C21.8442079,8.56472914 22.417942,8.44185807 22.7515884,8.18312663 C23.0319201,7.88367226 23.5791689,7.92439524 23.7525274,8.14205258 C23.9258859,8.33302937 24.0593445,8.74166355 23.7525274,9.02777761 C23.0986493,9.64072883 22.3113128,9.92649188 21.3636884,9.92649188 C19.5355128,9.91315158 18.1207835,8.37375235 18.1073688,6.52120739" id="Fill-31"></path>
                        <path d="M25.3972752,7.97880959 C25.637707,7.65197249 26.1048119,7.61089845 26.3982143,7.86962983 C26.7452753,8.16943531 27.3458388,8.48258105 27.8662583,8.46888968 C28.2267339,8.46888968 28.5600363,8.34636967 28.7736388,8.2101583 C28.960412,8.04691525 29.0140706,7.91070388 29.0140706,7.80152417 C29.0140706,7.73341846 29.0006559,7.70638684 28.9738266,7.6653128 C28.960412,7.62458976 28.9070973,7.57017546 28.8004681,7.50206975 C28.6136949,7.36585838 28.2133193,7.2163067 27.7327998,7.12046724 L27.7193851,7.12046724 C27.3055948,7.03902128 26.9052192,6.92984152 26.5585021,6.76659853 C26.1980264,6.58931311 25.8774508,6.34427303 25.637707,5.97636189 C25.4904898,5.73097076 25.4106899,5.43151634 25.4106899,5.11837061 C25.4106899,4.49172805 25.7577509,3.96057388 26.1980264,3.62004543 C26.6651314,3.29320833 27.2257949,3.1159229 27.839429,3.1159229 C28.7602241,3.1159229 29.4144462,3.56563109 29.8416511,3.86543655 C30.1618828,4.08309391 30.2550974,4.5328021 30.0549096,4.87333055 C29.8416511,5.20016763 29.4010316,5.29530496 29.0673852,5.06360521 C28.6401802,4.77784216 28.2666339,4.55983374 27.839429,4.55983374 C27.5057826,4.55983374 27.2123802,4.66901348 27.0386777,4.80522486 C26.8653192,4.92739383 26.8254192,5.05026492 26.8254192,5.11837061 C26.8254192,5.17278495 26.8254192,5.1864763 26.8519045,5.2271993 C26.8653192,5.25458198 26.9052192,5.30899633 26.9987777,5.36341067 C27.1721363,5.48628175 27.5191973,5.60880181 27.9728875,5.69059883 L27.9863022,5.70393914 L27.9997168,5.70393914 C28.4399924,5.78573617 28.8541267,5.90825618 29.2410877,6.09923296 C29.6012194,6.26247601 29.9613511,6.52120739 30.1883681,6.9028099 C30.3483121,7.17523265 30.4422146,7.48872945 30.4422146,7.80152417 C30.4422146,8.46888968 30.0817389,9.02777761 29.6012194,9.38164638 C29.1210438,9.72217479 28.5204803,9.92649188 27.8662583,9.92649188 C26.8254192,9.91315158 26.0246679,9.42236936 25.4904898,8.98670357 C25.1970874,8.74131249 25.1568434,8.27826396 25.3972752,7.97880959" id="Fill-33"></path>
                        <path d="M7.69051513,4.54982465 C7.93244423,4.54982465 8.132498,4.62976555 8.29068238,4.78964975 C8.44886682,4.94953395 8.52795783,5.14824418 8.52795783,5.3857864 L8.52795783,8.29109614 C8.52795783,8.61086453 8.38373302,8.85753927 8.09527913,9.03112786 C7.18339254,9.58843848 6.18312378,9.86708961 5.09444288,9.86708961 C4.17325134,9.86708961 3.32185982,9.64553912 2.54024275,9.2024315 C1.75862569,8.75932387 1.1398548,8.16090914 0.683911512,7.40716933 C0.227968224,6.65342957 0,5.82889631 0,4.93354481 C0,4.03819331 0.227968224,3.21366004 0.683911512,2.45992026 C1.1398548,1.70618048 1.75862569,1.10776575 2.54024275,0.664658119 C3.32185982,0.221550491 4.17325134,0 5.09444288,0 C6.01563441,0 6.8158494,0.182722054 7.49511188,0.548171647 C7.63468633,0.621261563 7.73936563,0.717190639 7.80915286,0.835961758 C7.87894008,0.954732876 7.9138332,1.08263831 7.9138332,1.21968191 C7.9138332,1.4480879 7.83706838,1.64679814 7.68353644,1.81581858 C7.53000456,1.98483901 7.34158181,2.06934796 7.11826264,2.06934796 C6.97868819,2.06934796 6.82515856,2.03280355 6.65766919,1.95971363 C6.15520107,1.74958012 5.63413087,1.64451494 5.09444288,1.64451494 C4.49892512,1.64451494 3.94994042,1.79297661 3.4474723,2.0899044 C2.9450042,2.38683219 2.54722291,2.78653668 2.25411651,3.28902987 C1.96101011,3.79152306 1.81445911,4.33968922 1.81445911,4.93354481 C1.81445911,5.52740037 1.96101011,6.07556654 2.25411651,6.57805976 C2.54722291,7.08055293 2.9450042,7.48025741 3.4474723,7.77718519 C3.94994042,8.07411303 4.49892512,8.22257466 5.09444288,8.22257466 C5.3549819,8.22257466 5.63412664,8.19973442 5.93188553,8.15405323 C6.22964441,8.10837203 6.49017954,8.04898737 6.7134987,7.97589742 L6.7134987,6.1943396 L5.4015052,6.1943396 C5.1595761,6.1943396 4.95719615,6.1166827 4.79435926,5.96136666 C4.63152237,5.80605057 4.55010515,5.60962434 4.55010515,5.3720821 C4.55010515,5.13453989 4.63152237,4.93811368 4.79435926,4.7827976 C4.95719615,4.62748153 5.1595761,4.54982465 5.4015052,4.54982465 L7.69051513,4.54982465 Z" id="Path"></path>
                    </g>
                </g>
            </g>
        </g>
    </g>
</svg>